<svg width="48" height="32" viewBox="0 0 48 32" fill="none" xmlns="http://www.w3.org/2000/svg">
<g clip-path="url(#clip0_45_2866)">
<path d="M0.35083 23.3814H3.49881C5.3602 23.3814 6.52296 24.2098 6.51089 25.4776C6.5057 26.0234 6.51089 26.7043 5.8048 27.3275C6.29376 27.3275 6.85469 27.9914 6.85469 29.3078C6.85469 30.9818 5.8768 31.8782 4.34023 31.8782H0.35083V23.3814ZM2.28189 25.2018V26.7444H3.80634C4.3702 26.7444 4.50495 26.2681 4.50495 26.0202V25.9613C4.50495 25.4776 4.31489 25.2254 3.80634 25.2254L2.28189 25.2018ZM2.28189 28.3505V30.1758H4.06956C4.49687 30.1758 4.65812 29.7386 4.65812 29.3527V29.226C4.65812 28.6434 4.38114 28.3618 3.87029 28.3618L2.28189 28.35V28.3505Z" fill="#1E1E1E"/>
<path d="M9.07593 28.1019L6.15369 23.3818H8.69465L10.1051 26.1505L11.6555 23.3818H13.9678L11.1343 28.1019V31.8781H9.07593V28.1019Z" fill="#1E1E1E"/>
<path d="M28.9677 26.127C28.9677 27.8427 27.6005 29.2233 24.6178 29.2233V31.8749H22.533V23.3936H25.6988C28.1447 23.3936 28.9677 24.4113 28.9677 26.127ZM24.6178 27.6385H25.3452C26.2833 27.6385 27.0194 27.1142 27.0194 26.127C27.0194 25.1398 26.421 24.8704 25.3452 24.8704H24.6178V27.6391V27.6385Z" fill="#1E1E1E"/>
<path d="M0.35083 22.237V11.1174H3.29897L6.6779 17.0669L10.2411 11.1174H13.1892V22.237H10.2411V17.1567L6.6779 22.237L3.29897 17.1567V22.237H0.35083Z" fill="#1E1E1E"/>
<path d="M16.8169 11.118H20.8294L23.7568 22.2376H21.1513L20.4659 20.1696H17.0882L16.4541 22.2376H13.7974L16.8175 11.118H16.8169ZM18.8234 14.0523L17.4959 18.1241H20.053L18.8234 14.0523Z" fill="#1E1E1E"/>
<path d="M34.0813 11.118H42.347V13.6311H36.7133V15.3811H42.347V17.8306H36.7133V19.9146H42.347V22.237H34.0813V11.1174V11.118Z" fill="#1E1E1E"/>
<path d="M29.4272 23.3936H35.7318V25.3108H31.4349V26.6454H35.7318V28.514H31.4349V30.1036H35.7318V31.8749H29.4272V23.3936Z" fill="#1E1E1E"/>
<path d="M16.7777 23.3936H19.8381L22.071 31.8749H20.084L19.5611 30.2976H16.9844L16.5007 31.8749H14.474L16.7777 23.3936ZM18.3085 25.6321L17.296 28.7374H19.2466L18.3085 25.6321Z" fill="#1E1E1E"/>
<path d="M28.0802 22.2531L24.328 22.2429V11.1233L28.0802 11.0886C31.5956 11.0886 33.4731 12.722 33.4731 16.7547C33.4731 19.8484 31.671 22.2531 28.0802 22.2531ZM26.911 19.8484H28.0802C29.7209 19.8484 30.7219 18.8467 30.7219 16.7547C30.7219 14.6627 29.9409 13.6873 28.0802 13.6873H26.911V19.8484Z" fill="#1E1E1E"/>
<path fill-rule="evenodd" clip-rule="evenodd" d="M36.4828 25.7518C36.4828 24.4289 37.4707 23.4679 39.0688 23.3369C40.4026 23.2273 41.6178 23.6908 42.5396 24.2776L41.6972 26.0746C41.6972 26.0746 40.7545 25.5508 40.2004 25.383C39.7655 25.2509 39.1874 25.3755 39.0688 25.6582C38.9502 25.941 38.9721 26.2301 39.3561 26.4151C39.3868 26.43 39.4211 26.4461 39.4585 26.4642C39.6706 26.5647 39.9907 26.7171 40.3535 26.9287H40.3595C40.3595 26.9287 41.1392 27.3312 41.748 27.9779C41.7974 28.0271 41.8465 28.0779 41.8941 28.1292H41.8839C42.2104 28.5156 42.4585 28.9753 42.4585 29.4804C42.4585 30.8027 41.3199 31.8551 39.7218 31.9861C38.388 32.0956 37.1689 31.512 36.2467 30.9251L36.8982 29.1255C36.8982 29.1255 38.1872 29.6808 38.7406 29.8492C39.1754 29.9812 39.7535 29.8567 39.8721 29.5739C39.9907 29.2911 40.0059 29.0896 39.5848 28.8171C39.4535 28.7321 39.2961 28.6439 39.1182 28.5445C38.9852 28.4702 38.8408 28.3895 38.6876 28.2986C38.5211 28.2147 36.4811 27.1596 36.4811 25.7518H36.4828Z" fill="#1E1E1E"/>
<path d="M45.8569 12.9427V11.0886H46.32L46.8978 12.0806L47.4494 11.0886H47.9982V12.9427H47.5352V12.0277L46.8978 12.9427L46.3489 12.0277V12.9427H45.8569Z" fill="#1E1E1E"/>
<path d="M43.927 11.4788V11.0886H45.6825V11.4788H45.0426V12.9427H44.5729V11.4788H43.927Z" fill="#1E1E1E"/>
<path d="M9.97039 0.854661L8.97464 0.696987C8.91648 0.687902 8.90666 0.615746 8.96024 0.593831C11.2743 -0.350079 13.7145 0.0363567 15.4929 1.5185C15.5563 1.57141 15.5396 1.66709 15.4641 1.70397C15.1439 1.86058 14.788 2.08827 14.629 2.19356C14.5801 2.22617 14.5127 2.22029 14.4695 2.1818C13.3298 1.16894 11.2219 1.03104 9.97039 0.854127V0.854661Z" fill="#1E1E1E"/>
<path d="M32.7278 0.854661L33.7242 0.696987C33.7823 0.687902 33.7921 0.615746 33.7385 0.593831C31.4239 -0.350079 28.9837 0.0363567 27.2053 1.5185C27.1419 1.57141 27.1586 1.66709 27.2341 1.70397C27.5543 1.86058 27.9102 2.08827 28.0692 2.19356C28.1181 2.22617 28.1855 2.22029 28.2287 2.1818C29.3684 1.16894 31.4763 1.03104 32.7278 0.854127V0.854661Z" fill="#1E1E1E"/>
<path d="M21.4087 1.66815C19.8087 1.66815 18.9138 1.2908 17.3392 1.26888C17.2862 1.26835 17.2597 1.20902 17.2989 1.17588C18.4219 0.222348 20.5862 0 21.3384 0C21.9702 0 24.066 0.175848 25.2858 1.16947C25.3272 1.20314 25.2996 1.26461 25.2443 1.26354C23.6657 1.24002 23.6542 1.66761 21.4081 1.66761L21.4087 1.66815Z" fill="#1E1E1E"/>
<path fill-rule="evenodd" clip-rule="evenodd" d="M1.56944 9.45731H0.59556C0.425085 9.45731 0.307598 9.29695 0.365767 9.14836C0.472888 8.87366 0.612261 8.48134 0.630688 8.2547C0.647968 8.03823 0.640478 7.85919 0.632993 7.69668C0.618596 7.36906 0.607076 7.10874 0.813257 6.74529C0.982577 6.44707 1.16917 6.20812 1.3598 5.96496C1.59881 5.65974 1.843 5.34762 2.06473 4.90183C2.23347 4.5619 2.3429 4.07818 2.45981 3.56027C2.56751 3.08297 2.68154 2.5768 2.85489 2.12836C3.21657 1.19408 3.345 0.861623 4.22905 0.722654C5.09291 0.586891 6.08005 0.848793 7.08156 1.1155C7.65576 1.26837 8.23515 1.4223 8.79897 1.50301C9.15431 1.55379 9.51484 1.59815 9.87248 1.64198C11.3739 1.82638 12.8379 2.00597 13.7565 2.66339C13.8653 2.74143 13.8653 2.88948 13.783 2.9921C13.4392 3.42076 13.1524 4.1851 13.0977 5.10389C13.0579 5.76398 13.2261 6.58602 13.5353 7.6021C13.7139 8.18843 13.3971 8.82232 13.1869 9.2435C13.1731 9.27079 13.1604 9.29695 13.1477 9.32209C13.1074 9.40387 13.0199 9.45784 12.9226 9.45784H5.4287C5.29621 9.45784 5.18909 9.35788 5.18277 9.23496C5.12979 8.18308 4.69497 7.08525 3.57421 7.08525C2.45348 7.08525 1.95127 8.39527 1.81478 9.25634C1.79693 9.37071 1.69384 9.45837 1.56944 9.45837V9.45731ZM3.46422 5.79552C3.00866 5.34013 3.22003 4.92482 3.4573 4.45927C3.53792 4.30109 3.62203 4.137 3.68305 3.96327C3.74986 3.77408 3.80344 3.57578 3.85642 3.38068C4.06434 2.61262 4.26071 1.88677 5.21849 1.88677C5.21849 1.88677 5.87849 1.93969 6.25857 2.14974C7.21748 2.67943 7.15356 4.65385 6.19868 5.59188C5.38088 6.39521 3.87544 6.20654 3.46422 5.79496V5.79552ZM8.28812 6.86396C9.20556 7.48558 10.6811 7.32202 11.3244 6.84096C12.1704 6.20812 12.3587 4.08887 11.6411 3.47047C10.8671 2.80396 10.0257 2.7302 9.11686 3.13428C8.08945 3.59128 7.64828 6.43103 8.28756 6.86396H8.28812Z" fill="#1E1E1E"/>
<path fill-rule="evenodd" clip-rule="evenodd" d="M41.1283 9.45731H42.1017C42.2721 9.45731 42.3897 9.29695 42.3314 9.14836C42.2241 8.87366 42.0847 8.48134 42.0664 8.2547C42.0491 8.03823 42.0565 7.85919 42.0643 7.69668C42.0784 7.36906 42.09 7.10874 41.8839 6.74529C41.7145 6.44707 41.5278 6.20812 41.3372 5.96496C41.0983 5.65974 40.854 5.34762 40.6324 4.90183C40.4637 4.5619 40.3543 4.07818 40.2374 3.56027C40.1298 3.08297 40.0154 2.5768 39.8421 2.12836C39.4804 1.19408 39.3523 0.861623 38.4681 0.722654C37.6041 0.586891 36.617 0.848793 35.6157 1.1155C35.0414 1.26837 34.462 1.4223 33.8982 1.50301C33.5428 1.55379 33.1823 1.59815 32.8247 1.64198C31.3232 1.82638 29.8592 2.00597 28.9406 2.66339C28.8318 2.74143 28.8318 2.88948 28.9141 2.9921C29.258 3.42076 29.5448 4.1851 29.5995 5.10389C29.6392 5.76398 29.471 6.58602 29.1618 7.6021C29 8.1339 29.2447 8.70422 29.4492 9.1195C29.55 9.32423 29.7728 9.45784 30.0153 9.45784H37.2689C37.4019 9.45784 37.5085 9.35788 37.5149 9.23496C37.5678 8.18308 38.0026 7.08525 39.1236 7.08525C40.2441 7.08525 40.7471 8.39527 40.883 9.25634C40.9006 9.37071 41.004 9.45837 41.1283 9.45837V9.45731ZM39.234 5.79552C39.6897 5.34013 39.4783 4.92482 39.2411 4.45927C39.1603 4.30109 39.077 4.137 39.0152 3.96327C38.9485 3.77408 38.8949 3.57578 38.8419 3.38068C38.634 2.61262 38.4374 1.88677 37.4799 1.88677C37.4799 1.88677 36.8199 1.93969 36.4398 2.14974C35.4809 2.67943 35.5447 4.65385 36.4994 5.59188C37.3176 6.39521 38.8229 6.20654 39.234 5.79496V5.79552ZM34.4101 6.86396C33.4927 7.48558 32.0172 7.32202 31.3739 6.84096C30.5279 6.20812 30.3396 4.08887 31.0571 3.47047C31.8312 2.80396 32.6726 2.7302 33.5814 3.13428C34.6088 3.59128 35.05 6.43103 34.4107 6.86396H34.4101Z" fill="#1E1E1E"/>
<path fill-rule="evenodd" clip-rule="evenodd" d="M18.9375 9.4573H14.1602C14.0669 9.4573 14.0093 9.36325 14.0525 9.28681C14.6071 8.31084 14.4078 7.62294 14.185 6.85487C14.0202 6.28669 13.8423 5.6747 13.9494 4.87031C14.2356 3.32082 15.0091 2.54473 16.5698 2.17219C17.3796 1.9787 18.3431 2.12729 19.3417 2.28123C20.0334 2.38759 20.7412 2.49663 21.4272 2.49663C21.9386 2.49663 22.5565 2.40576 23.2016 2.31116C24.2158 2.16203 25.2968 2.00383 26.1336 2.17219C27.7439 2.49663 28.6054 3.38175 28.6941 4.788C28.7529 5.72442 28.587 6.38612 28.4453 6.95002C28.2432 7.7544 28.0917 8.36 28.7143 9.27879C28.7661 9.35523 28.7091 9.45786 28.6118 9.45786H23.7182C23.6088 9.45786 23.5132 9.39049 23.4774 9.2943C23.3024 8.82555 22.6884 7.50856 21.3281 7.50856C19.9678 7.50856 19.3538 8.82555 19.1782 9.2943C19.1425 9.38997 19.0463 9.45786 18.9375 9.45786V9.4573ZM18.2389 7.26269C17.2823 7.78489 16.0383 7.77687 15.5557 6.74531C15.0079 5.57316 15.5401 3.91625 17.0824 3.50629C18.6979 3.07708 20.2609 3.2866 20.2022 4.41707C20.1584 5.25728 19.3573 6.65228 18.2389 7.26216V7.26269ZM27.1766 6.74531C26.6945 7.77687 25.45 7.78436 24.4934 7.26269C23.3749 6.65228 22.5738 5.25728 22.53 4.4176C22.4713 3.28714 24.0343 3.07762 25.6498 3.50682C27.1915 3.91678 27.7243 5.57369 27.1766 6.74584V6.74531Z" fill="#1E1E1E"/>
</g>
<defs>
<clipPath id="clip0_45_2866">
<rect width="48" height="32" fill="white"/>
</clipPath>
</defs>
</svg>
